<?xml version="1.0" encoding="utf-8"?>
<!-- Generator: Adobe Illustrator 15.0.0, SVG Export Plug-In . SVG Version: 6.00 Build 0)  -->
<!DOCTYPE svg PUBLIC "-//W3C//DTD SVG 1.1//EN" "http://www.w3.org/Graphics/SVG/1.1/DTD/svg11.dtd">
<svg version="1.1" id="Layer_1" xmlns="http://www.w3.org/2000/svg" xmlns:xlink="http://www.w3.org/1999/xlink" x="0px" y="0px"
	 width="640px" height="480px" viewBox="0 0 640 480" enable-background="new 0 0 640 480" xml:space="preserve">
<g>
	<path fill="#A0A0A0" d="M579.511,200.345c-0.188-10.243-0.987-23.18-2.419-38.826c-1.416-15.628-3.461-29.621-6.103-41.94
		c-3.033-13.839-9.629-25.498-19.77-34.975c-10.14-9.475-21.935-14.978-35.416-16.495C473.726,63.369,410.122,61,324.99,61
		c-85.107,0-148.716,2.369-190.81,7.109c-13.464,1.517-25.205,7.02-35.262,16.495c-10.039,9.477-16.583,21.136-19.617,34.975
		c-2.844,12.319-4.979,26.312-6.391,41.94c-1.432,15.646-2.235,28.583-2.423,38.826c-0.187,10.241-0.287,24.454-0.287,42.656
		c0,18.202,0.1,32.416,0.287,42.657c0.188,10.245,0.991,23.18,2.423,38.808c1.412,15.646,3.442,29.639,6.103,41.961
		c3.032,13.838,9.63,25.495,19.768,34.971c10.141,9.477,21.952,14.98,35.399,16.498c42.094,4.737,105.702,7.106,190.81,7.106
		c85.132,0,148.735-2.369,190.813-7.106c13.464-1.518,25.225-7.021,35.279-16.498c10.039-9.476,16.583-21.15,19.616-34.971
		c2.848-12.322,4.977-26.315,6.393-41.961c1.432-15.628,2.231-28.58,2.419-38.808c0.188-10.241,0.29-24.455,0.29-42.657
		C579.801,224.798,579.699,210.586,579.511,200.345L579.511,200.345z M425.666,258.356l-145.597,90.992
		c-2.66,1.892-5.881,2.847-9.663,2.847c-2.85,0-5.782-0.768-8.813-2.268c-6.253-3.425-9.391-8.726-9.391-15.935V152.014
		c0-7.214,3.138-12.513,9.391-15.939c6.442-3.406,12.595-3.22,18.476,0.581l145.597,90.995c5.691,3.218,8.537,8.331,8.537,15.351
		C434.203,250.022,431.357,255.136,425.666,258.356L425.666,258.356z M425.666,258.356"/>
</g>
</svg>
