<?xml version="1.0" encoding="UTF-8" standalone="no"?>
<svg width="57px" height="57px" viewBox="0 0 57 57" version="1.1" xmlns="http://www.w3.org/2000/svg" xmlns:xlink="http://www.w3.org/1999/xlink">
    <!-- Generator: Sketch 40.3 (33839) - http://www.bohemiancoding.com/sketch -->
    <title>icon-play</title>
    <desc>Created with Sketch.</desc>
    <defs>
        <polygon id="path-1" points="0 56.2510364 56.2512121 56.2510364 56.2512121 -0.000175757576 0 -0.000175757576"></polygon>
    </defs>
    <g id="Welcome" stroke="none" stroke-width="1" fill="none" fill-rule="evenodd">
        <g id="Webinars" transform="translate(-582.000000, -538.000000)">
            <g id="Group-4" transform="translate(276.000000, 494.000000)">
                <g id="Group-2-Copy" transform="translate(230.000000, 0.000000)">
                    <g id="icon-play" transform="translate(76.000000, 44.000000)">
                        <mask id="mask-2" fill="white">
                            <use xlink:href="#path-1"></use>
                        </mask>
                        <g id="Clip-2"></g>
                        <path d="M38.2469576,26.9798424 L23.5202303,18.3923273 C22.1809576,17.6084485 21.0965333,18.2341455 21.1035636,19.7860848 L21.1791394,36.8328121 C21.1861697,38.3917818 22.2846545,39.0245091 23.6292,38.2406303 L38.2399273,29.8025091 C39.5862303,29.0274182 39.5932606,27.7637212 38.2469576,26.9798424 M39.3735636,47.6049939 C28.6154424,53.8197818 14.8553818,50.1306303 8.64235152,39.3742667 C2.42932121,28.6161455 6.11495758,14.8578424 16.8748364,8.64305455 C27.6329576,2.43002424 41.3982909,6.11566061 47.6042909,16.8737818 C53.8173212,27.6336606 50.1316848,41.3919636 39.3735636,47.6049939 M52.4798061,14.0669333 C44.7148364,0.616206061 27.5152,-3.9974303 14.0662303,3.7745697 C0.617260606,11.5325091 -3.99637576,28.7374182 3.77386667,42.1881455 C11.5318061,55.6388727 28.7384727,60.2437212 42.1874424,52.4787515 C55.6381697,44.7137818 60.2447758,27.5176606 52.4798061,14.0669333" id="Fill-1" fill="#FFFFFF" mask="url(#mask-2)"></path>
                    </g>
                </g>
            </g>
        </g>
    </g>
</svg>