<svg viewBox="0 0 164 137" xmlns="http://www.w3.org/2000/svg"><g fill="none" fill-rule="nonzero"><g fill="#0d6ae5" transform="translate(21.764 -.604)"><path d="m60.44472 79.48344c-6.58476 0-12.60672-4.35768-16.9644-12.28512-4.02-7.236-6.19884-16.8438-6.19884-26.9742s2.20296-19.72212 6.19884-26.98224c4.35768-7.9194 10.38768-12.28512 16.9644-12.28512 1.9226799 0 3.48132 1.55864005 3.48132 3.48132s-1.5586401 3.48132-3.48132 3.48132c-3.93156 0-7.79076 3.07932-10.87008 8.67516-3.44112 6.25512-5.35464 14.64084-5.35464 23.60544s1.89744 17.3664 5.33856 23.62152c3.07932 5.628 6.93852 8.6832 10.87008 8.6832s7.7988-3.08736 10.87812-8.6832c3.46524-6.231 5.35464-14.61672 5.35464-23.62152-.0616726-1.2822113.5872786-2.494319 1.688565-3.1538928 1.1012864-.6595739 2.4761836-.6595739 3.57747 0 1.1012864.6595738 1.7502376 1.8716815 1.688565 3.1538928 0 10.1304-2.20296 19.71408-6.19884 26.9742-4.35768 7.95156-10.37964 12.30924-16.97244 12.30924z"/><path d="m9.9294 57.99252c-.02606681-.0561476-.02692275-.120753-.00235262-.1775714.02457014-.0568184.07222889-.1004445.13099262-.1199086 12.6851105-3.4779397 25.6961702-5.6334269 38.82516-6.432 3.86724-.2412 7.79076-.35376 11.67408-.35376 9.9146291.0024645 19.8143438.7685299 29.61132 2.2914l3.44112.53064-1.07736 6.88224-3.44112-.53868c-9.4410799-1.4603555-18.9806042-2.1914771-28.53396-2.18688-3.7386 0-7.52544.1206-11.256.34572-12.2006443.7498931-24.2962437 2.7133071-36.10764 5.86116-.1281452.036604-.2640098-.0245351-.3216-.14472z"/><path d="m.804 43.84212c-.0268592-.0506616-.03080217-.1103828-.01083674-.1641359s.06193827-.0964199.11535674-.1172641c2.60496-.85224 5.27424-1.65624 7.95156-2.412l1.0854-.29748c12.7461056-3.4865156 25.819365-5.6420406 39.01008-6.432 3.6582-.20904 7.37268-.3216 11.06304-.3216 5.24208 0 10.56456.22512 15.83076.65124l.65928.05628 1.51956.12864h.11256c3.31248.30552 6.72948.7236 10.1706 1.23012l2.10648.29748c.804.1206 1.608.24924 2.412.38592h.04824l3.68232.66732 2.79792.41808c.2756379.0595305.4646691.3138634.4422.59496l-.4824 6.58476-4.07628-.75576c-1.1658-.22512-2.412-.45024-3.7386-.67536l-2.3316-.26532c-1.09344-.17688-2.24316-.34572-3.64212-.53868-1.206-.16884-2.26728-.30552-3.216-.41808l-2.33964-.25728c-6.5878212-.7100523-13.2087081-1.0696789-19.83468-1.07736-18.8903886.0029605-37.6682781 2.9070933-55.677 8.61084-.14209681.0493926-.29900257-.0120053-.36984-.14472z"/><path d="m69.33696 18.894c.0090567-.0687532-.0109405-.1381712-.0551852-.19157s-.1087363-.0859499-.1779748-.08983c-3.02304-.14472-6.0702-.21708-9.07716-.21708-3.6984 0-7.44504.11256-11.11932.3216-13.1443409.7751788-26.1737206 2.9036342-38.88144 6.3516-.03329532.0084317-.06091899.0316037-.07501352.0629249s-.01311737.0673636.00265352.0978751l3.07932 6.12648c.0310215.0577591.0969972.0874482.1608.07236 11.8195226-3.1169098 23.9208381-5.0453634 36.12372-5.75664 3.5376-.20904 7.13952-.31356 10.70928-.31356 1.608 0 5.74056.0804 7.92744.12864.3627991.0061121.6700352-.2662109.70752-.62712z"/><path d="m63.69288 79.54776c-16.5004351 1.393174-32.1137489-7.6701579-39.0869394-22.6894757-6.9731905-15.0193177-3.820828-32.7952049 7.8917394-44.5008043 12.453805-12.45300286 31.6532031-15.14328078 47.05008-6.5928 5.5396589 3.08104248 10.2597739 7.4454946 13.76448 12.72732.1204351.1960452.0634909.4522939-.12864.57888l-5.33856 3.44916c-.0943594.0626336-.2100922.0843058-.320721.0600584s-.2066872-.0923396-.266199-.1886984c-6.103114-9.1773496-16.4648567-14.60883684-27.4844301-14.40697141-11.0195733.20186543-21.1754341 6.00921071-26.9383299 15.40393141-1.7859946 2.8422503-3.0798208 5.9653728-3.82704 9.23796-2.6288265 10.9362905.6155131 22.4528718 8.5664532 30.4087331s19.4655118 11.2073261 30.4034268 8.5852669c3.261193-.7513698 6.3730621-2.0450376 9.2058-3.82704 9.5892603-5.8727592 15.4358893-16.3083829 15.4368-27.55308v-2.15472l5.28228-.2814 1.76076.25728c.0908851.0153259.1582428.0927872.1608013.18492v1.99392c.0052219 20.5028314-15.7010323 37.5895864-36.1317613 39.30756z"/></g><g fill="#333" transform="translate(-.604 88.136)"><path d="m14.6328 48.3204c-3.6563524.1179318-7.21106973-1.2143647-9.8892-3.70644-2.6129917-2.4309345-4.04909597-5.8717231-3.9396-9.43896v-.07236c-.06767886-3.5325543 1.34639554-6.9321641 3.8994-9.37464 2.60211622-2.5490642 6.1272891-3.933021 9.7686-3.83508 3.7758044-.0811286 7.4478164 1.2393063 10.30728 3.70644l-4.12452 4.95264c-1.6858279-1.5194656-3.8652639-2.3763867-6.13452-2.412-1.7646245-.0321756-3.454536.7113855-4.623 2.03412-1.2436975 1.3504545-1.91020899 3.1335892-1.85724 4.96872v.07236c-.06680941 1.8826664.6356606 3.7114107 1.94568 5.0652 1.3020324 1.3222911 3.0979319 2.0394848 4.95264 1.97784 1.4301031.0562075 2.8450775-.3101199 4.06824-1.05324v-3.08736h-5.025v-5.15364h11.68212v11.43288c-3.0884377 2.5866656-7.0027019 3.9789112-11.03088 3.92352z"/><path d="m32.45748 44.92752v-22.512h7.035v19.22364h12.30924v6.16668h-16.42572c-.7703192.0107597-1.5128011-.2877343-2.0613167-.8286947-.5485156-.5409603-.8572033-1.279231-.8572033-2.0496253z"/><path d="m78.0282 44.46924c-2.603368 2.5590136-6.1355079 3.9492313-9.78468 3.85116-3.6303383.1023996-7.146814-1.2728558-9.74448-3.81096-2.5509275-2.4272278-3.9656831-5.81389-3.8994-9.33444v-.07236c-.0642307-3.5399788 1.3659427-6.9432076 3.9396-9.37464 2.6094291-2.5580073 6.1482366-3.9427581 9.80076-3.83508 3.6283068-.091604 7.1386378 1.2922207 9.7284 3.83508 2.5582532 2.4120232 3.9874036 5.7865681 3.9396 9.30228v.07236c.0515688 3.5433236-1.3934077 6.9441268-3.9798 9.3666zm-14.37552-4.51848c1.208337 1.2783575 2.8875132 2.0060512 4.6465523 2.0137065 1.7590391.0075351 3.4444366-.7056312 4.6637677-1.9735065 1.2106861-1.3100746 1.8625736-3.0407493 1.81704-4.824v-.07236c.0292115-1.7863814-.63338-3.5148807-1.8492-4.824-1.192653-1.3250688-2.9051117-2.0623366-4.68732-2.01804-1.757145-.0540801-3.4486884.6696063-4.623 1.97784-1.1997304 1.3157184-1.8449415 3.0439625-1.80096 4.824v.07236c-.0310751 1.7837325.6253041 3.5110461 1.83312 4.824z"/><path d="m87.29832 47.80584v-25.4064h13.03284c3.0954 0 5.41092.7638 6.93048 2.2914 1.079678 1.0858149 1.661752 2.570103 1.608 4.1004v.07236c0 2.63712-1.30784 4.51312-3.92352 5.628 1.434363.400465 2.732446 1.1843176 3.75468 2.26728.905904 1.1067966 1.367349 2.5111933 1.29444 3.9396v.07236c.070184 2.030633-.884295 3.9607344-2.54064 5.13756-1.69376 1.24352-4.05484 1.86528-7.08324 1.86528zm6.86616-15.276h4.422c2.22976 0 3.34464-.73968 3.34464-2.21904v-.07236c0-1.4472-1.06932-2.1708-3.216-2.1708h-4.57476zm0 9.648h5.44308c.868363.0475626 1.731744-.1592017 2.48436-.59496.583596-.3766029.923373-1.0347288.89244-1.7286v-.07236c0-1.52224-1.14972-2.28336-3.44916-2.28336h-5.37072z"/><path d="m112.73688 47.80584 10.8138-25.58328h6.7938l10.8138 25.58328h-7.54956l-1.8492-4.53456h-9.80076l-1.81704 4.53456zm11.256-10.01784h5.70036l-2.83008-7.236z"/><path d="m144.88884 44.92752v-22.512h7.06716v19.22364h12.3012v6.16668h-16.49004c-1.589652 0-2.87832-1.2886678-2.87832-2.87832z"/><path d="m14.7534 13.04088c-1.4514008 1.4789782-3.4519858 2.2885309-5.52348 2.23512-2.05931276.0644947-4.05327915-.7272701-5.5074-2.18688-1.44787832-1.4090102-2.24076705-3.35916662-2.18688-5.37876v-.0402c-.03945313-2.01934673.76129083-3.96442661 2.211-5.37072 1.45714489-1.46766845 3.45609219-2.26782931 5.52348-2.211 2.0582963-.05871305 4.0500526.73217413 5.5074 2.18688 1.4342923 1.40820415 2.2252853 3.34497378 2.18688 5.35464.0477634 2.03267249-.75341 3.9933622-2.211 5.41092zm-8.63496-2.09844c.80705158.8812352 1.95720291 1.3682891 3.15168 1.33464 1.186049.0437162 2.3307993-.4389035 3.12756-1.31856.8132126-.8708944 1.2545466-2.02470865 1.23012-3.216v-.07236c.0276085-1.20920748-.4197804-2.38107775-1.2462-3.26424-.8055872-.88420729-1.9559398-1.37428096-3.15168-1.34268-1.18680792-.03518853-2.33059999.4457907-3.1356 1.31856-.80592764.8748594-1.24362714 2.02670018-1.22208 3.216-.04727549 1.23646206.40137142 2.4405725 1.2462 3.34464z"/><path d="m19.40856 17.51916v-14.4318h3.15168v1.608c.7796838-1.14377491 2.0811305-1.82016484 3.46524-1.80096 1.3513659-.013309 2.6463474.54084976 3.56976 1.5276 1.0339587 1.1456317 1.56918 2.65582368 1.4874 4.19688.0952361 1.5560483-.437675 3.0852715-1.47936 4.24512-.9188979.9998154-2.2199716 1.5611775-3.5778 1.54368-1.3514037.015939-2.6328716-.5995224-3.46524-1.66428v4.77576zm3.90744-6.64908c.4795306.5552284 1.1799457.8701209 1.91352.86028.7371913.0133065 1.4429055-.2983839 1.9296-.85224.5505475-.6044685.8395827-1.40220547.804-2.21904.0313005-.81134754-.2574445-1.60250884-.804-2.20296-.4830021-.56073872-1.1895925-.87870439-1.9296-.86832-.7314309-.01609386-1.4323133.29311894-1.91352.8442-.5435783.60224853-.8318655 1.39215534-.804 2.20296-.0337583.82138377.2547546 1.6234498.804 2.23512z"/><path d="m38.592 14.472c-1.5514068.0519214-3.0573856-.5284173-4.17276-1.608-1.088017-1.0935436-1.670777-2.5912367-1.608-4.13256v-.04824c-.0364603-1.51820822.5234925-2.990249 1.55976-4.1004 1.0040597-1.10959628 2.4437849-1.72368315 3.9396-1.68036 1.5406865-.09771032 3.0350749.54786546 4.02 1.73664.9463849 1.22710277 1.4379504 2.74442046 1.39092 4.29336v.804h-7.78272c.1121919.6289681.4424032 1.1982979.93264 1.608.5131704.385243 1.143744.5812321 1.78488.55476 1.0130178-.0114849 1.9807116-.4216716 2.6934-1.14168l1.80096 1.608c-1.0940692 1.3922783-2.7893169 2.1756203-4.55868 2.10648zm-2.6934-6.70536h4.7436c-.0616347-.63953306-.3264937-1.24250995-.75576-1.72056-.4184045-.43590014-1.0043966-.670297-1.608-.6432-.6011635-.02202789-1.1841641.20825735-1.608.63516-.4333392.48025319-.7035259 1.08535882-.77184 1.7286z"/><path d="m45.97272 14.19864v-11.11128h3.15168v1.608c.7291293-1.09064497 1.9445779-1.75689083 3.2562-1.78488 1.0425799-.05996762 2.0591367.33960383 2.78184 1.09344.7014556.84915407 1.0573968 1.93133004.99696 3.03108v7.236h-3.15168v-6.231c.0398505-.60167674-.1369739-1.19774597-.49848-1.68036-.3603057-.39639635-.8802149-.60908647-1.41504-.57888-.5411941-.02620712-1.0668474.18522884-1.43916.57888-.382478.47314877-.5720189 1.07336167-.53064 1.68036v6.19884z"/><path d="m63.84564 14.19864v-13.61172h10.26708v2.62908h-7.29228v2.79792h6.432v2.66124h-6.432v2.86224h7.38876v2.66124z"/><path d="m80.9226 14.3916c-1.2696263.0135551-2.4853293-.5124703-3.34464-1.4472-.976621-1.0724111-1.4833105-2.4911419-1.407-3.9396-.0744203-1.44529795.4255541-2.86141025 1.39092-3.9396.8648737-.93638026 2.0861271-1.46227887 3.36072-1.4472 1.2549454-.0028481 2.4412519.57251059 3.216 1.55976v-5.17776h2.95068v14.19864h-2.95068v-1.49544c-.72359 1.0636362-1.9295965 1.6967896-3.216 1.6884zm-1.05324-3.31248c.4577783.5164465 1.114851.8120653 1.80498.8120653s1.3472017-.2956188 1.80498-.8120653c.4977993-.5738185.759284-1.31517075.73164-2.07432.0280178-.75677939-.2336428-1.49575495-.73164-2.06628-.4525096-.52029824-1.1114927-.81448713-1.80096-.804-.6915872-.00957038-1.352669.28424376-1.809.804-.504791.57339567-.7696434 1.31901295-.73968 2.08236-.0245572.75524332.2399974 1.4913953.73968 2.05824z"/><path d="m93.5052 14.3916c-.9777712.0589964-1.9315149-.3177912-2.60496-1.02912-.6639099-.7911139-.9978738-1.8074008-.93264-2.83812v-6.7536h2.95068v5.82096c-.0415411.5744854.1238709 1.1448717.46632 1.608.3377333.3712961.8256206.5694079 1.3266.53868.5073605.0266637 1.0009524-.1701854 1.35072-.53868.3656329-.4525559.544015-1.027982.49848-1.608v-5.82096h2.95872v10.452h-2.95872v-1.50348c-.6882805 1.0184434-1.826379 1.6414025-3.0552 1.67232z"/><path d="m107.35008 14.472c-1.440197.026154-2.829675-.5316606-3.851995-1.5464085-1.022321-1.0147479-1.590451-2.4000394-1.575005-3.8403915v-.0804c.049928-2.26680314 1.468507-4.27727239 3.587404-5.08421915s4.515459-.24940995 6.060596 1.40993915l-1.82508 1.94568c-.59003-.70449864-1.453249-1.12294059-2.3718-1.14972-.693865-.02091661-1.359565.27494993-1.809.804-.48122.55443583-.739126 1.2679774-.7236 2.00196-.026333.75167091.235374 1.485025.73164 2.0502.484019.5427651 1.18709.8381732 1.91352.804.918789-.0375732 1.785605-.4363087 2.412-1.10952l1.7286 1.75272c-.519575.5783873-1.137476 1.0601873-1.82508 1.42308-.757991.3946272-1.597726.606626-2.4522.61908z"/><path d="m116.76492 14.3916c-.920557.0432021-1.82657-.2417078-2.55672-.804-.689837-.5790231-1.067897-1.4482631-1.02108-2.34768-.06344-.9700477.365684-1.90686769 1.14168-2.4924.909127-.58800618 1.982527-.86973842 3.06324-.804.86716.00154388 1.728179.14549981 2.54868.42612v-.17688c0-1.27032-.74772-1.90548-2.24316-1.90548-.984684.02050884-1.958432.21090635-2.87832.5628l-.73968-2.2512c1.27025-.54225097 2.638904-.81598182 4.02-.804 1.272282-.14890745 2.550792.2221795 3.54564 1.02912.813429.90999523 1.222551 2.11124606 1.13364 3.32856v6.04608h-2.86224v-1.1256c-.80225.8862703-1.957325 1.3695159-3.15168 1.31856zm.89244-2.04216c.602813.028298 1.196752-.1535779 1.68036-.51456.408741-.3104351.644729-.7973458.63516-1.31052v-.53064c-.591275-.26491439-1.233541-.39666123-1.88136-.38592-.526784-.02894253-1.050237.09982124-1.50348.36984-.355065.2369501-.559598.6429649-.53868 1.06932-.013697.3621822.151658.7079233.4422.9246.335821.2519899.746009.3849471 1.1658.37788z"/><path d="m129.01788 14.37552c-.809662.0511044-1.609341-.2011241-2.24316-.70752-.593046-.6564595-.884561-1.5310047-.804-2.412v-4.95264h-1.2462v-2.5326h1.2462v-2.66124h2.95872v2.66124h2.4522v2.5326h-2.4522v4.45416c0 .67536.31356 1.01304.94872 1.01304.510846-.0003216 1.013629-.1273987 1.46328-.36984v2.3718c-.705368.4083295-1.508645.6167926-2.32356.603z"/><path d="m134.268 2.62908v-2.62908h3.11148v2.62908zm.0804 11.56956v-10.452h2.95068v10.452z"/><path d="m149.31888 12.864c-2.274573 2.0847477-5.765427 2.0847477-8.04 0-1.050045-.9896453-1.633909-2.3763214-1.608-3.819v-.0402c-.031003-1.4530267.552952-2.85159895 1.608-3.85116 2.271582-2.09242392 5.768418-2.09242392 8.04 0 1.048368.99080836 1.631905 2.37670806 1.608 3.819.039411 1.4663342-.544985 2.8805735-1.608 3.89136zm-4.02-.97284c.740029.0317736 1.456877-.2620164 1.96176-.804.495515-.5565589.760059-1.28117897.73968-2.02608v-.05628c.005813-.75662611-.282452-1.48593699-.804-2.03412-.517594-.53143508-1.22796-.8311837-1.9698-.8311837s-1.452206.29974862-1.9698.8311837c-.496439.55280737-.761277 1.27535516-.73968 2.01804-.007511.75694181.280997 1.4868677.804 2.03412.505605.5710029 1.23973.88647 2.00196.86028z"/><path d="m153.09768 14.19864v-10.452h2.95872v1.50348c.690125-1.01641601 1.827093-1.63875651 3.0552-1.67232.976706-.0523806 1.927771.32334884 2.60496 1.02912.65723.79795713.990167 1.81398861.93264 2.84616v6.74556h-2.95872v-5.81292c.049-.57524769-.117161-1.14821849-.46632-1.608-.330118-.3780231-.817805-.58023486-1.31856-.54672-.50862-.02460123-1.002409.17526574-1.35072.54672-.370923.44971655-.549983 1.02733129-.49848 1.608v5.81292z"/></g></g></svg>